<?xml version="1.0" encoding="utf-8"?>
<!-- Generator: Adobe Illustrator 17.1.0, SVG Export Plug-In . SVG Version: 6.00 Build 0)  -->
<!DOCTYPE svg PUBLIC "-//W3C//DTD SVG 1.1//EN" "http://www.w3.org/Graphics/SVG/1.1/DTD/svg11.dtd">
<svg version="1.1" id="Layer_1" xmlns="http://www.w3.org/2000/svg" xmlns:xlink="http://www.w3.org/1999/xlink" x="0px" y="0px"
	 viewBox="-35.5 -35 420 420" enable-background="new -35.5 -35 420 420" xml:space="preserve">
<path fill="#333333" d="M287.1,247.8c-0.4-4.1-2.4-9.8-3.5-14.2c-2.6-10.2-5.1-20.3-7.7-30.5c-1.7-6.7-3.3-13.4-5-20.1
	c-0.2-0.7-0.5-1.4-0.7-2c0.6-1.3,0.9-2.8,0.9-4.4V94.1c0-6.1-4.8-11.1-10.9-11.1H89c-6.1,0-11,5-11,11.1v82.6c0,1.5,0.3,3,0.8,4.3
	c-0.3,0.6-0.6,1.3-0.8,2.1c-1.7,6.7-3.3,13.4-5,20.1c-2.5,10.2-5.1,20.3-7.7,30.5c-1.1,4.4-3.2,10.1-3.5,14.2
	c-0.6,5.3,1.6,11.8,5.1,15.5c3.5,3.7,4.7,2.8,9.4,2.8c6.1,0,12.2,0,18.3,0c0.7,0,1.4,0,2.2,0c4.3,0,8.7,0,13,0c18,0,36,0,53.9,0
	c7,0,14.1,0,21.1,0c18,0,36,0,53.9,0c4.3,0,8.7,0,13,0c0.7,0,1.5,0,2.2,0c6.1,0,12.2,0,18.3,0c4.8,0,6.3,0.9,9.8-2.8
	C285.8,259.5,287.7,253,287.1,247.8z M107.4,235h-8.3l-1,6H89l1.1-6h-8.3l1.3-6h8.4l1.2-6h8.6l-1,6h7.8L107.4,235z M100.4,214
	c-5.7,0-10.3-3.1-10.3-6.9c0-3.8,4.6-6.9,10.3-6.9s10.3,3.1,10.3,6.9C110.7,210.9,106.1,214,100.4,214z M127,240l5.2-47H217l5,47
	H127z M227,173H122v-64h105V173z M237.2,212.3c-2.8,0-5.1-1.4-5.1-3.1c0-1.7,2.3-3.1,5.1-3.1c2.8,0,5.1,1.4,5.1,3.1
	C242.3,210.9,240,212.3,237.2,212.3z M242.4,202.5c0-1.7,2.3-3.1,5.1-3.1c2.8,0,5.1,1.4,5.1,3.1c0,1.7-2.3,3.1-5.1,3.1
	C244.7,205.6,242.4,204.2,242.4,202.5z M249,220.1c-2.8,0-5.1-1.4-5.1-3.1c0-1.7,2.3-3.1,5.1-3.1s5.1,1.4,5.1,3.1
	C254.1,218.7,251.8,220.1,249,220.1z M259.2,212.3c-2.8,0-5.1-1.4-5.1-3.1c0-1.7,2.3-3.1,5.1-3.1c2.8,0,5.1,1.4,5.1,3.1
	C264.3,210.9,262,212.3,259.2,212.3z"/>
</svg>
