<svg xmlns="http://www.w3.org/2000/svg" viewBox="-35.5 -35 420 420" enable-background="new -35.5 -35 420 420"><path fill="#333" d="M287.1 247.8c-.4-4.1-2.4-9.8-3.5-14.2l-7.7-30.5-5-20.1c-.2-.7-.5-1.4-.7-2 .6-1.3.9-2.8.9-4.4v-82.5c0-6.1-4.8-11.1-10.9-11.1h-171.2c-6.1 0-11 5-11 11.1v82.6c0 1.5.3 3 .8 4.3-.3.6-.6 1.3-.8 2.1l-5 20.1c-2.5 10.2-5.1 20.3-7.7 30.5-1.1 4.4-3.2 10.1-3.5 14.2-.6 5.3 1.6 11.8 5.1 15.5 3.5 3.7 4.7 2.8 9.4 2.8h195.9c4.8 0 6.3.9 9.8-2.8 3.8-3.9 5.7-10.4 5.1-15.6zm-179.7-12.8h-8.3l-1 6h-9.1l1.1-6h-8.3l1.3-6h8.4l1.2-6h8.6l-1 6h7.8l-.7 6zm-7-21c-5.7 0-10.3-3.1-10.3-6.9 0-3.8 4.6-6.9 10.3-6.9s10.3 3.1 10.3 6.9c0 3.8-4.6 6.9-10.3 6.9zm26.6 26l5.2-47h84.8l5 47h-95zm100-67h-105v-64h105v64zm10.2 39.3c-2.8 0-5.1-1.4-5.1-3.1 0-1.7 2.3-3.1 5.1-3.1s5.1 1.4 5.1 3.1c0 1.7-2.3 3.1-5.1 3.1zm5.2-9.8c0-1.7 2.3-3.1 5.1-3.1s5.1 1.4 5.1 3.1c0 1.7-2.3 3.1-5.1 3.1s-5.1-1.4-5.1-3.1zm6.6 17.6c-2.8 0-5.1-1.4-5.1-3.1 0-1.7 2.3-3.1 5.1-3.1s5.1 1.4 5.1 3.1c0 1.7-2.3 3.1-5.1 3.1zm10.2-7.8c-2.8 0-5.1-1.4-5.1-3.1 0-1.7 2.3-3.1 5.1-3.1s5.1 1.4 5.1 3.1c0 1.7-2.3 3.1-5.1 3.1z"/></svg>