<svg xmlns="http://www.w3.org/2000/svg" viewBox="-35.5 -35 420 420" enable-background="new -35.5 -35 420 420"><g fill="#333"><path d="M226.7 299.8s-5.9-5-9.1-8.2c-3.2-3.2-4.1-7.2-4.1-7.2l-2.5-27.4h-71.2l-2.6 27.4s-.9 4.2-4.1 7.4c-3.2 3.2-9.1 8.1-9.1 8.1s-5.3 3.7 2.6 4.9c4.5.7 24.8 1.2 41.1 1.2h15.4c16.6 0 36.5-.5 41-1.2 8-1.2 2.6-5 2.6-5zM336.3 45h-322.1c-4.6 0-9.2 4.3-9.2 8.9v189.2c0 4.7 4.6 8.9 9.2 8.9h322.29999999999995c4.6 0 7.7-4.2 7.7-8.9v-189.2c-.2-4.6-3.2-8.9-7.9-8.9zm-6.3 192h-312v-177h312v177z"/></g></svg>