<?xml version="1.0" encoding="utf-8"?>
<!-- Generator: Adobe Illustrator 17.1.0, SVG Export Plug-In . SVG Version: 6.00 Build 0)  -->
<!DOCTYPE svg PUBLIC "-//W3C//DTD SVG 1.1//EN" "http://www.w3.org/Graphics/SVG/1.1/DTD/svg11.dtd">
<svg version="1.1" id="Layer_1" xmlns="http://www.w3.org/2000/svg" xmlns:xlink="http://www.w3.org/1999/xlink" x="0px" y="0px"
	 viewBox="-35.5 -35 420 420" enable-background="new -35.5 -35 420 420" xml:space="preserve">
<g>
	<path fill="#333333" d="M226.7,299.8c0,0-5.9-5-9.1-8.2c-3.2-3.2-4.1-7.2-4.1-7.2L211,257h-71.2l-2.6,27.4c0,0-0.9,4.2-4.1,7.4
		c-3.2,3.2-9.1,8.1-9.1,8.1s-5.3,3.7,2.6,4.9c4.5,0.7,24.8,1.2,41.1,1.2h15.4c16.6,0,36.5-0.5,41-1.2
		C232.1,303.6,226.7,299.8,226.7,299.8z"/>
	<path fill="#333333" d="M336.3,45H14.2C9.6,45,5,49.3,5,53.9v189.2c0,4.7,4.6,8.9,9.2,8.9h119.2h6.9h70.4h7.2h118.6
		c4.6,0,7.7-4.2,7.7-8.9V53.9C344,49.3,341,45,336.3,45z M330,237H18V60h312V237z"/>
</g>
</svg>
