<svg xmlns="http://www.w3.org/2000/svg" viewBox="-35.5 -35 420 420" enable-background="new -35.5 -35 420 420"><path fill="#333" d="M211 79.2c-.8-.1-2-.1-3-.2-11-1-22.7-1.4-34.2-1.3-8.3-.1-16.8.1-24.8.6v.2c-4 .2-7.8.5-11.7.7-13 .9-14 10.5-13.9 21.4l.2 147.1c-.3 11-.1 22.4 13.8 23.6 3.9.3 7.6.6 11.6.9v.2c8 .5 16.4.7 24.5.7 11.4.1 23.5-.3 34.5-1.4v-.1c1-.1 2.1-.1 2.9-.2 13.9-1.2 14.8-12.6 14.4-23.6v-147.1c.1-11.1-1.3-20.6-14.3-21.5zm-46.4 6.8c0-.7.6-1 1.3-1h17.6c.7 0 1.3.3 1.3 1s-.6 1-1.3 1h-17.6c-.7 0-1.3-.3-1.3-1zm.6 176h18.900000000000002s-.5.2-.4.2c.3 0 .3.5.3 1.3v2.6s.1 2.6-2.8 2.9h.7-.2-.4-13.4-.4-.2-.4c-2.9-.3-3.9-2.9-3.9-2.9v-2.6c0-.8 1.1-1.2 1.6-1.3l.6-.2zm53.6-11h-88.3l-.2-154h88.7l-.2 154z"/></svg>