<?xml version="1.0" encoding="utf-8"?>
<!-- Generator: Adobe Illustrator 17.1.0, SVG Export Plug-In . SVG Version: 6.00 Build 0)  -->
<!DOCTYPE svg PUBLIC "-//W3C//DTD SVG 1.1//EN" "http://www.w3.org/Graphics/SVG/1.1/DTD/svg11.dtd">
<svg version="1.1" id="Layer_1" xmlns="http://www.w3.org/2000/svg" xmlns:xlink="http://www.w3.org/1999/xlink" x="0px" y="0px"
	 viewBox="-35.5 -35 420 420" enable-background="new -35.5 -35 420 420" xml:space="preserve">
<path fill="#333333" d="M232,84.4c0-10.2-8.2-18.4-18.4-18.4h-79.2c-10.2,0-18.4,8.2-18.4,18.4v182.2c0,10.2,8.2,18.4,18.4,18.4
	h79.2c10.2,0,18.4-8.2,18.4-18.4V84.4z M164.8,71h20.8c0.7,0,1.3,0.8,1.3,1.5s-0.6,1.5-1.3,1.5h-20.8c-0.7,0-1.3-0.8-1.3-1.5
	S164.1,71,164.8,71z M183.3,278h-16.5c-2.4,0-4.4-1.6-4.4-4s2-4,4.4-4h16.5c2.4,0,4.4,1.6,4.4,4S185.7,278,183.3,278z M226,266H123
	V85h103V266z"/>
</svg>
