<?xml version="1.0" encoding="utf-8"?>
<!-- Generator: Adobe Illustrator 17.1.0, SVG Export Plug-In . SVG Version: 6.00 Build 0)  -->
<!DOCTYPE svg PUBLIC "-//W3C//DTD SVG 1.1//EN" "http://www.w3.org/Graphics/SVG/1.1/DTD/svg11.dtd">
<svg version="1.1" id="Layer_1" xmlns="http://www.w3.org/2000/svg" xmlns:xlink="http://www.w3.org/1999/xlink" x="0px" y="0px"
	 viewBox="-35.5 -35 420 420" enable-background="new -35.5 -35 420 420" xml:space="preserve">
<path fill="#333333" d="M211,79.2c-0.8-0.1-2-0.1-3-0.2v0c-11-1-22.7-1.4-34.2-1.3c-8.3-0.1-16.8,0.1-24.8,0.6v0.2
	c-4,0.2-7.8,0.5-11.7,0.7c-13,0.9-14,10.5-13.9,21.4l0.2,147.1c-0.3,11-0.1,22.4,13.8,23.6c3.9,0.3,7.6,0.6,11.6,0.9v0.2
	c8,0.5,16.4,0.7,24.5,0.7c11.4,0.1,23.5-0.3,34.5-1.4v-0.1c1-0.1,2.1-0.1,2.9-0.2c13.9-1.2,14.8-12.6,14.4-23.6l0-147.1
	C225.4,89.6,224,80.1,211,79.2z M164.6,86c0-0.7,0.6-1,1.3-1h17.6c0.7,0,1.3,0.3,1.3,1c0,0.7-0.6,1-1.3,1h-17.6
	C165.2,87,164.6,86.7,164.6,86z M165.2,262h0.3h0.1h1.2h15.7h1.2h0.1h0.3c0,0-0.5,0.2-0.4,0.2c0.3,0,0.3,0.5,0.3,1.3
	c0,1.3,0,2.6,0,2.6s0.1,2.6-2.8,2.9c0,0,0.7,0,0.7,0c-0.1,0-0.1,0-0.2,0c-0.1,0-0.2,0-0.4,0c-3.2,0-11.2,0-13.4,0
	c-0.1,0-0.3,0-0.4,0c-0.1,0-0.2,0-0.2,0s-0.4,0-0.4,0c-2.9-0.3-3.9-2.9-3.9-2.9s0-1.3,0-2.6c0-0.8,1.1-1.2,1.6-1.3
	C164.6,262.2,165.2,262,165.2,262z M218.8,251H209h-59h-19.5l-0.2-154H150h59h10L218.8,251z"/>
</svg>
