<?xml version="1.0" encoding="utf-8"?>
<!-- Generator: Adobe Illustrator 17.1.0, SVG Export Plug-In . SVG Version: 6.00 Build 0)  -->
<!DOCTYPE svg PUBLIC "-//W3C//DTD SVG 1.1//EN" "http://www.w3.org/Graphics/SVG/1.1/DTD/svg11.dtd">
<svg version="1.1" id="Layer_1" xmlns="http://www.w3.org/2000/svg" xmlns:xlink="http://www.w3.org/1999/xlink" x="0px" y="0px"
	 viewBox="-35.5 -35 420 420" enable-background="new -35.5 -35 420 420" xml:space="preserve">
<path fill="#333333" d="M221,89.9c0-5.5-4-9.9-9.5-9.9h-74c-5.5,0-10.5,4.4-10.5,9.9v170c0,5.5,4.9,10.1,10.5,10.1h74
	c5.5,0,9.5-4.6,9.5-10.1V89.9z M219,260c0,4.4-3.3,8-7.7,8h-74c-4.4,0-8.3-3.6-8.3-8v-5h90V260z M133,244V98h82v146H133z M219,94
	h-90v-4c0-4.4,3.9-8,8.3-8h74c4.4,0,7.7,3.6,7.7,8V94z"/>
</svg>
