<?xml version="1.0" encoding="utf-8"?>
<!-- Generator: Adobe Illustrator 17.1.0, SVG Export Plug-In . SVG Version: 6.00 Build 0)  -->
<!DOCTYPE svg PUBLIC "-//W3C//DTD SVG 1.1//EN" "http://www.w3.org/Graphics/SVG/1.1/DTD/svg11.dtd">
<svg version="1.1" id="Layer_1" xmlns="http://www.w3.org/2000/svg" xmlns:xlink="http://www.w3.org/1999/xlink" x="0px" y="0px"
	 viewBox="-35 -35 420 420" enable-background="new -35 -35 420 420" xml:space="preserve">
<g>
	<path fill="#333333" d="M287.9,39.7c0-6.6-5.3-11.8-11.8-11.8H73.2c-6.6,0-11.8,5.3-11.8,11.8v270.4c0,6.6,5.3,11.8,11.8,11.8
		h202.9c6.6,0,11.8-5.3,11.8-11.8V39.7z M175.1,316.2c-3.7,0-6.7-3-6.7-6.7c0-3.7,3-6.7,6.7-6.7c3.7,0,6.7,3,6.7,6.7
		C181.8,313.2,178.8,316.2,175.1,316.2z M264.6,297H83.8V53.7h180.8V297z"/>
</g>
</svg>
