<?xml version="1.0" encoding="utf-8"?>
<!-- Generator: Adobe Illustrator 17.1.0, SVG Export Plug-In . SVG Version: 6.00 Build 0)  -->
<!DOCTYPE svg PUBLIC "-//W3C//DTD SVG 1.1//EN" "http://www.w3.org/Graphics/SVG/1.1/DTD/svg11.dtd">
<svg version="1.1" id="Layer_1" xmlns="http://www.w3.org/2000/svg" xmlns:xlink="http://www.w3.org/1999/xlink" x="0px" y="0px"
	 viewBox="-35 -35 420 420" enable-background="new -35 -35 420 420" xml:space="preserve">
<path fill="#333333" d="M256.6,66c0-6.6-5.3-11.8-11.8-11.8H105.2c-6.6,0-11.8,5.3-11.8,11.8V284c0,6.6,5.3,11.8,11.8,11.8h139.6
	c6.6,0,11.8-5.3,11.8-11.8V66z M175.5,291.2c-3.7,0-6.7-3-6.7-6.7c0-3.7,3-6.7,6.7-6.7c3.7,0,6.7,3,6.7,6.7S179.1,291.2,175.5,291.2
	z M249.1,274.2H100.8V77.5h148.3V274.2z"/>
</svg>
