<?xml version="1.0" encoding="utf-8"?>
<!-- Generator: Adobe Illustrator 17.1.0, SVG Export Plug-In . SVG Version: 6.00 Build 0)  -->
<!DOCTYPE svg PUBLIC "-//W3C//DTD SVG 1.1//EN" "http://www.w3.org/Graphics/SVG/1.1/DTD/svg11.dtd">
<svg version="1.1" id="Layer_1" xmlns="http://www.w3.org/2000/svg" xmlns:xlink="http://www.w3.org/1999/xlink" x="0px" y="0px"
	 viewBox="-35 -35 420 420" enable-background="new -35 -35 420 420" xml:space="preserve">
<path fill="#333333" d="M210.4,116.3c0-5.7-4.6-10.2-10.2-10.2h-50.4c-5.7,0-10.2,4.6-10.2,10.2v117.9c0,5.7,4.6,10.2,10.2,10.2
	h50.4c5.7,0,10.2-4.6,10.2-10.2V116.3z M182.1,117.9c0,0.9-0.8,1.6-1.6,1.6h-10.9c-0.9,0-1.6-0.7-1.6-1.6v-0.1
	c0-0.9,0.8-1.6,1.6-1.6h10.9C181.4,116.2,182.1,117,182.1,117.9L182.1,117.9z M175.2,238.2c-3.7,0-6.7-3-6.7-6.7s3-6.7,6.7-6.7
	s6.7,3,6.7,6.7C181.9,235.2,178.9,238.2,175.2,238.2z M205.4,220.3h-60.8v-90.8h60.8V220.3z"/>
</svg>
