<?xml version="1.0" encoding="utf-8"?>
<!-- Generator: Adobe Illustrator 17.1.0, SVG Export Plug-In . SVG Version: 6.00 Build 0)  -->
<!DOCTYPE svg PUBLIC "-//W3C//DTD SVG 1.1//EN" "http://www.w3.org/Graphics/SVG/1.1/DTD/svg11.dtd">
<svg version="1.1" id="Layer_1" xmlns="http://www.w3.org/2000/svg" xmlns:xlink="http://www.w3.org/1999/xlink" x="0px" y="0px"
	 viewBox="-35 -35 420 420" enable-background="new -35 -35 420 420" xml:space="preserve">
<path fill="#333333" d="M210.4,109.7c0-5.7-4.6-10.2-10.2-10.2H149c-5.7,0-10.2,4.6-10.2,10.2v131.2c0,5.7,4.6,10.2,10.2,10.2h51.2
	c5.7,0,10.2-4.6,10.2-10.2V109.7z M182.1,112.9c0,0.9-0.8,1.6-1.6,1.6h-10.9c-0.9,0-1.6-0.7-1.6-1.6v-0.1c0-0.9,0.8-1.6,1.6-1.6
	h10.9C181.4,111.2,182.1,112,182.1,112.9L182.1,112.9z M175.7,246.5c-3.7,0-6.7-3-6.7-6.7c0-3.7,3-6.7,6.7-6.7c3.7,0,6.7,3,6.7,6.7
	C182.3,243.5,179.4,246.5,175.7,246.5z M205.4,229.5h-60.8V121.2h60.8V229.5z"/>
</svg>
