<?xml version="1.0" encoding="utf-8"?>
<!-- Generator: Adobe Illustrator 17.1.0, SVG Export Plug-In . SVG Version: 6.00 Build 0)  -->
<!DOCTYPE svg PUBLIC "-//W3C//DTD SVG 1.1//EN" "http://www.w3.org/Graphics/SVG/1.1/DTD/svg11.dtd">
<svg version="1.1" id="Layer_1" xmlns="http://www.w3.org/2000/svg" xmlns:xlink="http://www.w3.org/1999/xlink" x="0px" y="0px"
	 viewBox="-35 -35 420 420" enable-background="new -35 -35 420 420" xml:space="preserve">
<path fill="#333333" d="M210.8,109.4c0-5.7-4.6-10.2-10.2-10.2h-51.2c-5.7,0-10.2,4.6-10.2,10.2v131.2c0,5.7,4.6,10.2,10.2,10.2
	h51.2c5.7,0,10.2-4.6,10.2-10.2V109.4z M175.9,105.6c1.8,0,3.2,1.4,3.2,3.2s-1.4,3.2-3.2,3.2s-3.2-1.4-3.2-3.2
	C172.7,107,174.1,105.6,175.9,105.6z M176.5,246.2c-3.7,0-6.7-3-6.7-6.7s3-6.7,6.7-6.7s6.7,3,6.7,6.7
	C183.2,243.2,180.2,246.2,176.5,246.2z M205.8,229.2H145V120.9h60.8V229.2z"/>
</svg>
