<?xml version="1.0" encoding="utf-8"?>
<!-- Generator: Adobe Illustrator 17.1.0, SVG Export Plug-In . SVG Version: 6.00 Build 0)  -->
<!DOCTYPE svg PUBLIC "-//W3C//DTD SVG 1.1//EN" "http://www.w3.org/Graphics/SVG/1.1/DTD/svg11.dtd">
<svg version="1.1" id="Layer_1" xmlns="http://www.w3.org/2000/svg" xmlns:xlink="http://www.w3.org/1999/xlink" x="0px" y="0px"
	 viewBox="-35 -35 420 420" enable-background="new -35 -35 420 420" xml:space="preserve">
<path fill="#333333" d="M210.4,116c0-5.7-4.6-10.2-10.2-10.2h-50.4c-5.7,0-10.2,4.6-10.2,10.2V234c0,5.7,4.6,10.2,10.2,10.2h50.4
	c5.7,0,10.2-4.6,10.2-10.2V116z M175.8,237.9c-3.7,0-6.7-3-6.7-6.7s3-6.7,6.7-6.7c3.7,0,6.7,3,6.7,6.7
	C182.5,234.9,179.5,237.9,175.8,237.9z M205.4,220h-60.8v-90.8h60.8V220z"/>
</svg>
