<?xml version="1.0" encoding="utf-8"?>
<!-- Generator: Adobe Illustrator 17.1.0, SVG Export Plug-In . SVG Version: 6.00 Build 0)  -->
<!DOCTYPE svg PUBLIC "-//W3C//DTD SVG 1.1//EN" "http://www.w3.org/Graphics/SVG/1.1/DTD/svg11.dtd">
<svg version="1.1" id="Layer_1" xmlns="http://www.w3.org/2000/svg" xmlns:xlink="http://www.w3.org/1999/xlink" x="0px" y="0px"
	 viewBox="-35 -35 420 420" enable-background="new -35 -35 420 420" xml:space="preserve">
<g>
	<path fill="#333333" d="M193.8,127.8c-9.2,0-27.7,0-36.8,0c-0.3,0-1.8-0.2-1.8-0.2v1.7v2.2v44.4v38.6v7.2c0,0,1.4,0.7,1.8,0.7
		c9.2,0,27.7,0,36.8,0c0.4,0,1-0.7,1-0.7v-5.3v-40.4v-43.1v-3.4v-1.7C194.9,127.7,194.2,127.8,193.8,127.8z M175.3,212.9
		c-8.3,0-15.1-6.8-15.1-15.1c0-8.3,6.8-15.1,15.1-15.1c8.3,0,15.1,6.8,15.1,15.1C190.4,206.2,183.6,212.9,175.3,212.9z M159.4,176.5
		v-42.3h31.2v42.3H159.4z"/>
	<circle fill="#333333" cx="175.2" cy="197.9" r="7.1"/>
</g>
</svg>
