<?xml version="1.0" encoding="utf-8"?>
<!-- Generator: Adobe Illustrator 17.1.0, SVG Export Plug-In . SVG Version: 6.00 Build 0)  -->
<!DOCTYPE svg PUBLIC "-//W3C//DTD SVG 1.1//EN" "http://www.w3.org/Graphics/SVG/1.1/DTD/svg11.dtd">
<svg version="1.1" id="Layer_1" xmlns="http://www.w3.org/2000/svg" xmlns:xlink="http://www.w3.org/1999/xlink" x="0px" y="0px"
	 viewBox="-35.5 -35 420 420" enable-background="new -35.5 -35 420 420" xml:space="preserve">
<path fill="#333333" d="M222.3,82c-23.6,0-70.9,0-94.6,0c-0.8,0-4.8-0.9-4.8-0.9v7.6v165v14.2c0,0,4,1.2,4.8,1.2
	c23.6,0,70.9,0,94.6,0c1,0,2.7-1.2,2.7-1.2v-10.6V91.1V81.1C225,81.1,223.3,82,222.3,82z M168.7,89h12.4c0.6,0,1.1,0.9,1.1,1.5
	c0,0.6-0.5,1.5-1.1,1.5h-12.4c-0.6,0-1.1-0.9-1.1-1.5C167.6,89.9,168.1,89,168.7,89z M177,248.5l-6-0.8V244l6-0.7V248.5z M215,238
	h-82V99h82V238z"/>
</svg>
