<?xml version="1.0" encoding="utf-8"?>
<!-- Generator: Adobe Illustrator 17.1.0, SVG Export Plug-In . SVG Version: 6.00 Build 0)  -->
<!DOCTYPE svg PUBLIC "-//W3C//DTD SVG 1.1//EN" "http://www.w3.org/Graphics/SVG/1.1/DTD/svg11.dtd">
<svg version="1.1" id="Layer_1" xmlns="http://www.w3.org/2000/svg" xmlns:xlink="http://www.w3.org/1999/xlink" x="0px" y="0px"
	 viewBox="-35.5 -35 420 420" enable-background="new -35.5 -35 420 420" xml:space="preserve">
<path fill="#333333" d="M220.4,241.2l-0.1-134c0.1-10-1.2-17-12.8-19.5c-5.7-1.2-11.6-2.1-17.6-2.7v-0.3c-17-1.5-33.4-0.6-48.6,2.7
	c-11.6,2.5-13,9.5-12.9,19.5l0,134c-0.3,10,0.5,18.9,12.9,21.5c5.6,1.2,11.6,2.1,17.6,2.7v0.4c16,1.5,33.5,0.5,48.8-2.7
	C220.2,260,220.7,251.2,220.4,241.2z M214.1,244h-24.4h-31h-24l-0.2-141h24.2h31h24.5L214.1,244z"/>
</svg>
