<svg xmlns="http://www.w3.org/2000/svg" viewBox="-35.5 -35 420 420" enable-background="new -35.5 -35 420 420"><path fill="#333" d="M304.4 196c-11.6 0-21.4-9.1-21.4-20.7v-133.3h-236.5c-2.7 0-5.5 2.1-5.5 4.8v256.7c0 2.7 2.9 4.6 5.5 4.6h256.7c2.7 0 3.8-1.9 3.8-4.6v-107.5h-2.6zm-149.4-141c0-2 1.7-4 3.7-4h2.7c1.3 0 2.4.6 3 1.6.7-1 1.8-1.6 3-1.6h2.7c2 0 2.8 1.9 2.8 4v25h-2v-21.3c0-1.7-.5-2.7-1.9-2.7h-.5c-1.4 0-3.6 1-3.6 2.7v21.3h-3v-21.3c0-1.7-.3-2.7-1.6-2.7h-.5c-1.4 0-2.8 1-2.8 2.7v21.3h-2v-25zm-1 28.7c0-.7.5-1.7.8-1.7h2.2v10.5c0 1.5 1.6 2.5 3.1 2.5h9.5c2.8 0 4.5 2.5 4.5 5.3v11.5c0 .7.4 1.3.1 2.3h-3.2v-11c0-1.5-.7-3-2.2-3h-9.5c-2.8 0-5.4-2-5.4-4.8v-11.6zm20 55.3h-6.2c-2.8 0-5.8-2.2-5.8-5v-16.099999999999998c0-1.4-.4-2.9-1.8-2.9h-.1c-1.4 0-3.1 1.5-3.1 2.9v21.1h-3v-22.8c0-3.2 2.9-6.2 6.1-6.2h.2c3.2 0 4.7 3 4.7 6.2v13.1c0 2.8 3.3 4.8 6.1 4.8h2.9v4.9z"/></svg>