<?xml version="1.0" encoding="utf-8"?>
<!-- Generator: Adobe Illustrator 17.1.0, SVG Export Plug-In . SVG Version: 6.00 Build 0)  -->
<!DOCTYPE svg PUBLIC "-//W3C//DTD SVG 1.1//EN" "http://www.w3.org/Graphics/SVG/1.1/DTD/svg11.dtd">
<svg version="1.1" id="Layer_1" xmlns="http://www.w3.org/2000/svg" xmlns:xlink="http://www.w3.org/1999/xlink" x="0px" y="0px"
	 viewBox="-35.5 -35 420 420" enable-background="new -35.5 -35 420 420" xml:space="preserve">
<path fill="#333333" d="M304.4,196c-11.6,0-21.4-9.1-21.4-20.7V42H46.5c-2.7,0-5.5,2.1-5.5,4.8v256.7c0,2.7,2.9,4.6,5.5,4.6h256.7
	c2.7,0,3.8-1.9,3.8-4.6V196H304.4z M155,55c0-2,1.7-4,3.7-4h2.7c1.3,0,2.4,0.6,3,1.6c0.7-1,1.8-1.6,3-1.6h2.7c2,0,2.8,1.9,2.8,4v25
	h-2V58.7c0-1.7-0.5-2.7-1.9-2.7h-0.5c-1.4,0-3.6,1-3.6,2.7V80h-3V58.7c0-1.7-0.3-2.7-1.6-2.7h-0.5c-1.4,0-2.8,1-2.8,2.7V80h-2V55z
	 M154,83.7c0-0.7,0.5-1.7,0.8-1.7h2.2v10.5c0,1.5,1.6,2.5,3.1,2.5h2.7h4.4h2.4c2.8,0,4.5,2.5,4.5,5.3v11.5c0,0.7,0.4,1.3,0.1,2.3
	H171v-11c0-1.5-0.7-3-2.2-3h-1.7h-4.4h-3.4c-2.8,0-5.4-2-5.4-4.8V83.7z M174,139h-6.2c-2.8,0-5.8-2.2-5.8-5v-9.1v-6.1v-0.9
	c0-1.4-0.4-2.9-1.8-2.9h-0.1c-1.4,0-3.1,1.5-3.1,2.9V139h-3v-22.8c0-3.2,2.9-6.2,6.1-6.2h0.2c3.2,0,4.7,3,4.7,6.2v2.6v6.1v4.4
	c0,2.8,3.3,4.8,6.1,4.8h2.9V139z"/>
</svg>
