<?xml version="1.0" encoding="utf-8"?>
<!-- Generator: Adobe Illustrator 17.1.0, SVG Export Plug-In . SVG Version: 6.00 Build 0)  -->
<!DOCTYPE svg PUBLIC "-//W3C//DTD SVG 1.1//EN" "http://www.w3.org/Graphics/SVG/1.1/DTD/svg11.dtd">
<svg version="1.1" id="Layer_1" xmlns="http://www.w3.org/2000/svg" xmlns:xlink="http://www.w3.org/1999/xlink" x="0px" y="0px"
	 viewBox="-35.5 -35 420 420" enable-background="new -35.5 -35 420 420" xml:space="preserve">
<path fill="#333333" d="M384,53.4c0-5.2-4.2-9.4-9.4-9.4H-25.6c-5.2,0-9.4,4.2-9.4,9.4v244.2c0,5.2,4.2,9.4,9.4,9.4h400.2
	c5.2,0,9.4-4.2,9.4-9.4V53.4z M180,293h-6v-4.9l6-1.7V293z M173,293h-4v-3.4l4-1.2V293z M169,294h4v4.7l-4-1.1V294z M174,299v-5h6
	v6.5L174,299z M359,281H-9V73h368V281z"/>
</svg>
