<svg xmlns="http://www.w3.org/2000/svg" viewBox="-35.5 -35 420 420" enable-background="new -35.5 -35 420 420"><g fill="#333"><path d="M189.3 97.4c-.4 0-.7.1-1 .3-.3.2-.4.6-.4 1s.1.7.4.9c.3.2.6.3 1 .3.3 0 .6-.1.9-.3.3-.2.4-.5.4-1 0-.3-.1-.6-.3-.9-.2-.2-.6-.3-1-.3zM192.1 74.1c.4 0 .7-.2.8-.5.1-.2.1-.5.1-.9v-1.7h-3v1.8c0 .4.6.7.7.9.1.2.9.4 1.4.4zM192.2 102.6c-.4-.2-1.1-.3-1.9-.3-.6 0-1.2.1-1.5.2-.6.2-.9.6-.9 1.1 0 .4.2.7.5 1 .4.2 1 .4 2 .4.7 0 1.3-.1 1.8-.3.5-.2.7-.5.7-1 0-.6-.2-.9-.7-1.1zM206.1 213l4.3-162.5s-1.3-3.8-2.3-5.5c-1-1.7-2.9-1.9-2.9-1.9l-25-.3v-.2l-5.6.1-5.6-.1v.2l-25 .3s-1.9.2-2.9 1.9-2.3 5.5-2.3 5.5l4.3 162.5-4.6 86.6s.6 7 4.3 7.6c2.6.4 19.2.6 27.2.7h6c10-.1 26.2-.2 28.8-.7 3.7-.6 5.5-7.6 5.5-7.6l-4.2-86.6zm-20.1-144.7l2.7-1.7-2.7-1.8v-1l3.6 2.3 3.4-2.1v1l-2.5 1.6 2.5 1.6v1l-3.4-2.1-3.6 2.2v-1zm0 1.7h7v3.1c0 .8.2 1.3-.3 1.6-.3.2-.4.3-.7.3-.4 0-.6-.1-.9-.3-.1-.1-.2-.3-.3-.5-.1.3-.2.6-.4.7-.3.3-.7.4-1.2.4-.4 0-1.4-.1-1.8-.4-.5-.4-1.4-1-1.4-1.9v-3zm-11.4 159.3c-7.4 0-13.4-6-13.4-13.4s6-13.4 13.4-13.4 13.4 6 13.4 13.4-6 13.4-13.4 13.4zm18-124c-.5.3-1.2.4-2.1.4-.9 0-1.6-.1-2.1-.4-.8-.4-1.2-1-1.2-1.8s.3-1.3 1-1.7c.5-.3 1.3-.5 2.2-.5.7 0 1.3.1 1.8.3 1 .3 1.4 1 1.4 1.9 0 .8-.3 1.4-1 1.8zm-4.4-10.8c.2.3.5.4.9.4s.7-.1.9-.4c.2-.3.3-.6.3-1.1v-.4h.7v.4c0 .3 0 .5.1.7.2.3.5.5.9.5.3 0 .6-.1.7-.3.2-.2.3-.5.3-.8 0-.5-.9-.9-1.3-1.1-.2-.1-1.6-.2-1.6-.2v-.8c1 0 1.6.1 2 .3.6.3 1.3.9 1.3 1.7 0 .6.1 1.1-.2 1.5-.3.4-.6.5-1.1.5-.4 0-.7-.1-.9-.3-.1-.1-.2-.3-.3-.5-.1.3-.3.6-.5.8-.3.2-.6.3-.9.3-.6 0-1.1-.2-1.5-.6-.4-.4-.6-1-.6-1.7s-.4-1.3 0-1.6c.4-.3-.1-.5.9-.5v.8c-1 0-.1.1-.3.2-.3.2-.2.6-.2 1.1-.2.5.2.8.4 1.1zm3.9 5.7c-.4.3-1.1.4-2.1.4v-.8c1 0 1.4-.1 1.6-.2.3-.2.9-.5.9-.9s0-.8-.4-1.1c-.4-.3-.9-.4-1.6-.4.3.2.5.4.7.7.1.3.2.5.2.8 0 .5-.2 1-.5 1.4-.3.4-.8.6-1.5.6-.6 0-1.1-.2-1.5-.6-.4-.4-.7-.9-.7-1.6 0-.6.2-1.1.7-1.5.4-.4 1.2-.6 2.3-.6.8 0 1.4.1 2 .3 1 .4 1.1 1 1.1 2-.2.7-.8 1.2-1.2 1.5zm.9-16.2l-2.5 1.6 2.5 1.6v1l-3.4-2.1-3.6 2.2v-1.1l2.7-1.7-2.7-1.8v-1l3.6 2.3 3.4-2.1v1.1zm-.2-2.4c-.6.4-1.3.6-2.2.6-1 0-1.8-.2-2.4-.7-.7-.6-1.1-1.4-1.1-2.5 0-1 .3-1.8 1-2.3.6-.5 1.4-.8 2.4-.8.9 0 1.6.2 2.2.7.8.6 1.2 1.4 1.2 2.5s-.3 2-1.1 2.5zM190.5 76.9c-.7 0-1.3.2-1.8.5-.5.4-.7.9-.7 1.8 0 .8.3 1.3.8 1.7.6.3 1.2.5 1.9.5.8 0 1.4-.2 1.8-.6.5-.4.7-.9.7-1.6 0-.7-.2-1.2-.7-1.6-.5-.5-1.2-.7-2-.7zM188 74.2c.2.1.7.2 1 .2.5 0 .8-.2.9-.6.1-.2.1-.5.1-.9v-1.9h-3v2c0 .6.7 1 1 1.2z"/></g></svg>