<?xml version="1.0" encoding="utf-8"?>
<!-- Generator: Adobe Illustrator 17.1.0, SVG Export Plug-In . SVG Version: 6.00 Build 0)  -->
<!DOCTYPE svg PUBLIC "-//W3C//DTD SVG 1.1//EN" "http://www.w3.org/Graphics/SVG/1.1/DTD/svg11.dtd">
<svg version="1.1" id="Layer_1" xmlns="http://www.w3.org/2000/svg" xmlns:xlink="http://www.w3.org/1999/xlink" x="0px" y="0px"
	 viewBox="-35.5 -35 420 420" enable-background="new -35.5 -35 420 420" xml:space="preserve">
<g>
	<path fill="#333333" d="M189.3,97.4c-0.4,0-0.7,0.1-1,0.3c-0.3,0.2-0.4,0.6-0.4,1c0,0.4,0.1,0.7,0.4,0.9c0.3,0.2,0.6,0.3,1,0.3
		c0.3,0,0.6-0.1,0.9-0.3c0.3-0.2,0.4-0.5,0.4-1c0-0.3-0.1-0.6-0.3-0.9C190.1,97.5,189.7,97.4,189.3,97.4z"/>
	<path fill="#333333" d="M192.1,74.1c0.4,0,0.7-0.2,0.8-0.5c0.1-0.2,0.1-0.5,0.1-0.9V71h-3v1.8c0,0.4,0.6,0.7,0.7,0.9
		C190.8,73.9,191.6,74.1,192.1,74.1z"/>
	<path fill="#333333" d="M192.2,102.6c-0.4-0.2-1.1-0.3-1.9-0.3c-0.6,0-1.2,0.1-1.5,0.2c-0.6,0.2-0.9,0.6-0.9,1.1
		c0,0.4,0.2,0.7,0.5,1c0.4,0.2,1,0.4,2,0.4c0.7,0,1.3-0.1,1.8-0.3c0.5-0.2,0.7-0.5,0.7-1C192.9,103.1,192.7,102.8,192.2,102.6z"/>
	<path fill="#333333" d="M206.1,213l4.3-162.5c0,0-1.3-3.8-2.3-5.5c-1-1.7-2.9-1.9-2.9-1.9l-25-0.3l0-0.2l-5.6,0.1l-5.6-0.1l0,0.2
		l-25,0.3c0,0-1.9,0.2-2.9,1.9c-1,1.7-2.3,5.5-2.3,5.5l4.3,162.5l-4.6,86.6c0,0,0.6,7,4.3,7.6c2.6,0.4,19.2,0.6,27.2,0.7v0
		c0,0,1,0,3,0c2,0,3,0,3,0v0c10-0.1,26.2-0.2,28.8-0.7c3.7-0.6,5.5-7.6,5.5-7.6L206.1,213z M186,68.3l2.7-1.7l-2.7-1.8v-1l3.6,2.3
		L193,64V65l-2.5,1.6l2.5,1.6v1l-3.4-2.1l-3.6,2.2V68.3z M186,70h7v3.1c0,0.8,0.2,1.3-0.3,1.6c-0.3,0.2-0.4,0.3-0.7,0.3
		c-0.4,0-0.6-0.1-0.9-0.3c-0.1-0.1-0.2-0.3-0.3-0.5c-0.1,0.3-0.2,0.6-0.4,0.7c-0.3,0.3-0.7,0.4-1.2,0.4c-0.4,0-1.4-0.1-1.8-0.4
		c-0.5-0.4-1.4-1-1.4-1.9V70z M174.6,229.3c-7.4,0-13.4-6-13.4-13.4c0-7.4,6-13.4,13.4-13.4c7.4,0,13.4,6,13.4,13.4
		C188,223.3,182,229.3,174.6,229.3z M192.6,105.3c-0.5,0.3-1.2,0.4-2.1,0.4c-0.9,0-1.6-0.1-2.1-0.4c-0.8-0.4-1.2-1-1.2-1.8
		c0-0.8,0.3-1.3,1-1.7c0.5-0.3,1.3-0.5,2.2-0.5c0.7,0,1.3,0.1,1.8,0.3c1,0.3,1.4,1,1.4,1.9C193.6,104.3,193.3,104.9,192.6,105.3z
		 M188.2,94.5c0.2,0.3,0.5,0.4,0.9,0.4c0.4,0,0.7-0.1,0.9-0.4c0.2-0.3,0.3-0.6,0.3-1.1c0-0.1,0-0.1,0-0.2c0-0.1,0-0.2,0-0.2h0.7
		c0,0,0,0.2,0,0.2c0,0.1,0,0.1,0,0.2c0,0.3,0,0.5,0.1,0.7c0.2,0.3,0.5,0.5,0.9,0.5c0.3,0,0.6-0.1,0.7-0.3c0.2-0.2,0.3-0.5,0.3-0.8
		c0-0.5-0.9-0.9-1.3-1.1c-0.2-0.1-1.6-0.2-1.6-0.2v-0.8c1,0,1.6,0.1,2,0.3c0.6,0.3,1.3,0.9,1.3,1.7c0,0.6,0.1,1.1-0.2,1.5
		c-0.3,0.4-0.6,0.5-1.1,0.5c-0.4,0-0.7-0.1-0.9-0.3c-0.1-0.1-0.2-0.3-0.3-0.5c-0.1,0.3-0.3,0.6-0.5,0.8c-0.3,0.2-0.6,0.3-0.9,0.3
		c-0.6,0-1.1-0.2-1.5-0.6c-0.4-0.4-0.6-1-0.6-1.7c0-0.7-0.4-1.3,0-1.6c0.4-0.3-0.1-0.5,0.9-0.5v0.8c-1,0-0.1,0.1-0.3,0.2
		c-0.3,0.2-0.2,0.6-0.2,1.1C187.6,93.9,188,94.2,188.2,94.5z M192.1,100.2c-0.4,0.3-1.1,0.4-2.1,0.4v-0.8c1,0,1.4-0.1,1.6-0.2
		c0.3-0.2,0.9-0.5,0.9-0.9c0-0.4,0-0.8-0.4-1.1c-0.4-0.3-0.9-0.4-1.6-0.4c0.3,0.2,0.5,0.4,0.7,0.7c0.1,0.3,0.2,0.5,0.2,0.8
		c0,0.5-0.2,1-0.5,1.4c-0.3,0.4-0.8,0.6-1.5,0.6c-0.6,0-1.1-0.2-1.5-0.6c-0.4-0.4-0.7-0.9-0.7-1.6c0-0.6,0.2-1.1,0.7-1.5
		c0.4-0.4,1.2-0.6,2.3-0.6c0.8,0,1.4,0.1,2,0.3c1,0.4,1.1,1,1.1,2C193.1,99.4,192.5,99.9,192.1,100.2z M193,84l-2.5,1.6l2.5,1.6v1
		l-3.4-2.1l-3.6,2.2v-1.1l2.7-1.7l-2.7-1.8v-1l3.6,2.3l3.4-2.1V84z M192.8,81.6c-0.6,0.4-1.3,0.6-2.2,0.6c-1,0-1.8-0.2-2.4-0.7
		c-0.7-0.6-1.1-1.4-1.1-2.5c0-1,0.3-1.8,1-2.3c0.6-0.5,1.4-0.8,2.4-0.8c0.9,0,1.6,0.2,2.2,0.7c0.8,0.6,1.2,1.4,1.2,2.5
		C193.9,80.2,193.6,81.1,192.8,81.6z"/>
	<path fill="#333333" d="M190.5,76.9c-0.7,0-1.3,0.2-1.8,0.5c-0.5,0.4-0.7,0.9-0.7,1.8c0,0.8,0.3,1.3,0.8,1.7
		c0.6,0.3,1.2,0.5,1.9,0.5c0.8,0,1.4-0.2,1.8-0.6c0.5-0.4,0.7-0.9,0.7-1.6c0-0.7-0.2-1.2-0.7-1.6C192,77.1,191.3,76.9,190.5,76.9z"
		/>
	<path fill="#333333" d="M188,74.2c0.2,0.1,0.7,0.2,1,0.2c0.5,0,0.8-0.2,0.9-0.6c0.1-0.2,0.1-0.5,0.1-0.9V71h-3v2
		C187,73.6,187.7,74,188,74.2z"/>
</g>
</svg>
